<svg width="312" height="52" viewBox="0 0 312 52" fill="none" xmlns="http://www.w3.org/2000/svg">
    <rect x="50" y="2" width="2" height="2" rx="1" transform="rotate(-90 50 2)" fill="#F8F8F8" fill-opacity="0.4"/>
    <rect x="50" y="12" width="2" height="2" rx="1" transform="rotate(-90 50 12)" fill="#F8F8F8" fill-opacity="0.4"/>
    <rect x="50" y="22" width="2" height="2" rx="1" transform="rotate(-90 50 22)" fill="#F8F8F8" fill-opacity="0.4"/>
    <rect x="10" y="2" width="2" height="2" rx="1" transform="rotate(-90 10 2)" fill="#F8F8F8" fill-opacity="0.4"/>
    <rect x="10" y="12" width="2" height="2" rx="1" transform="rotate(-90 10 12)" fill="#F8F8F8" fill-opacity="0.4"/>
    <rect x="10" y="22" width="2" height="2" rx="1" transform="rotate(-90 10 22)" fill="#F8F8F8" fill-opacity="0.4"/>
    <rect x="60" y="2" width="2" height="2" rx="1" transform="rotate(-90 60 2)" fill="#F8F8F8" fill-opacity="0.4"/>
    <rect x="60" y="12" width="2" height="2" rx="1" transform="rotate(-90 60 12)" fill="#F8F8F8" fill-opacity="0.4"/>
    <rect x="60" y="22" width="2" height="2" rx="1" transform="rotate(-90 60 22)" fill="#F8F8F8" fill-opacity="0.4"/>
    <rect x="20" y="2" width="2" height="2" rx="1" transform="rotate(-90 20 2)" fill="#F8F8F8" fill-opacity="0.4"/>
    <rect x="20" y="12" width="2" height="2" rx="1" transform="rotate(-90 20 12)" fill="#F8F8F8" fill-opacity="0.4"/>
    <rect x="20" y="22" width="2" height="2" rx="1" transform="rotate(-90 20 22)" fill="#F8F8F8" fill-opacity="0.4"/>
    <rect x="70" y="2" width="2" height="2" rx="1" transform="rotate(-90 70 2)" fill="#F8F8F8" fill-opacity="0.4"/>
    <rect x="70" y="12" width="2" height="2" rx="1" transform="rotate(-90 70 12)" fill="#F8F8F8" fill-opacity="0.4"/>
    <rect x="70" y="22" width="2" height="2" rx="1" transform="rotate(-90 70 22)" fill="#F8F8F8" fill-opacity="0.4"/>
    <rect x="30" y="2" width="2" height="2" rx="1" transform="rotate(-90 30 2)" fill="#F8F8F8" fill-opacity="0.4"/>
    <rect x="30" y="12" width="2" height="2" rx="1" transform="rotate(-90 30 12)" fill="#F8F8F8" fill-opacity="0.4"/>
    <rect x="30" y="22" width="2" height="2" rx="1" transform="rotate(-90 30 22)" fill="#F8F8F8" fill-opacity="0.4"/>
    <rect x="40" y="2" width="2" height="2" rx="1" transform="rotate(-90 40 2)" fill="#F8F8F8" fill-opacity="0.4"/>
    <rect x="40" y="12" width="2" height="2" rx="1" transform="rotate(-90 40 12)" fill="#F8F8F8" fill-opacity="0.4"/>
    <rect x="40" y="22" width="2" height="2" rx="1" transform="rotate(-90 40 22)" fill="#F8F8F8" fill-opacity="0.4"/>
    <rect y="2" width="2" height="2" rx="1" transform="rotate(-90 0 2)" fill="#F8F8F8" fill-opacity="0.4"/>
    <rect y="12" width="2" height="2" rx="1" transform="rotate(-90 0 12)" fill="#F8F8F8" fill-opacity="0.4"/>
    <rect y="22" width="2" height="2" rx="1" transform="rotate(-90 0 22)" fill="#F8F8F8" fill-opacity="0.4"/>
    <rect x="50" y="32" width="2" height="2" rx="1" transform="rotate(-90 50 32)" fill="#F8F8F8" fill-opacity="0.4"/>
    <rect x="50" y="42" width="2" height="2" rx="1" transform="rotate(-90 50 42)" fill="#F8F8F8" fill-opacity="0.4"/>
    <rect x="50" y="52" width="2" height="2" rx="1" transform="rotate(-90 50 52)" fill="#F8F8F8" fill-opacity="0.4"/>
    <rect x="10" y="32" width="2" height="2" rx="1" transform="rotate(-90 10 32)" fill="#F8F8F8" fill-opacity="0.4"/>
    <rect x="10" y="42" width="2" height="2" rx="1" transform="rotate(-90 10 42)" fill="#F8F8F8" fill-opacity="0.4"/>
    <rect x="10" y="52" width="2" height="2" rx="1" transform="rotate(-90 10 52)" fill="#F8F8F8" fill-opacity="0.4"/>
    <rect x="60" y="32" width="2" height="2" rx="1" transform="rotate(-90 60 32)" fill="#F8F8F8" fill-opacity="0.4"/>
    <rect x="60" y="42" width="2" height="2" rx="1" transform="rotate(-90 60 42)" fill="#F8F8F8" fill-opacity="0.4"/>
    <rect x="60" y="52" width="2" height="2" rx="1" transform="rotate(-90 60 52)" fill="#F8F8F8" fill-opacity="0.4"/>
    <rect x="20" y="32" width="2" height="2" rx="1" transform="rotate(-90 20 32)" fill="#F8F8F8" fill-opacity="0.4"/>
    <rect x="20" y="42" width="2" height="2" rx="1" transform="rotate(-90 20 42)" fill="#F8F8F8" fill-opacity="0.4"/>
    <rect x="20" y="52" width="2" height="2" rx="1" transform="rotate(-90 20 52)" fill="#F8F8F8" fill-opacity="0.4"/>
    <rect x="70" y="32" width="2" height="2" rx="1" transform="rotate(-90 70 32)" fill="#F8F8F8" fill-opacity="0.4"/>
    <rect x="70" y="42" width="2" height="2" rx="1" transform="rotate(-90 70 42)" fill="#F8F8F8" fill-opacity="0.4"/>
    <rect x="70" y="52" width="2" height="2" rx="1" transform="rotate(-90 70 52)" fill="#F8F8F8" fill-opacity="0.4"/>
    <rect x="30" y="32" width="2" height="2" rx="1" transform="rotate(-90 30 32)" fill="#F8F8F8" fill-opacity="0.4"/>
    <rect x="30" y="42" width="2" height="2" rx="1" transform="rotate(-90 30 42)" fill="#F8F8F8" fill-opacity="0.4"/>
    <rect x="30" y="52" width="2" height="2" rx="1" transform="rotate(-90 30 52)" fill="#F8F8F8" fill-opacity="0.4"/>
    <rect x="40" y="32" width="2" height="2" rx="1" transform="rotate(-90 40 32)" fill="#F8F8F8" fill-opacity="0.4"/>
    <rect x="40" y="42" width="2" height="2" rx="1" transform="rotate(-90 40 42)" fill="#F8F8F8" fill-opacity="0.4"/>
    <rect x="40" y="52" width="2" height="2" rx="1" transform="rotate(-90 40 52)" fill="#F8F8F8" fill-opacity="0.4"/>
    <rect y="32" width="2" height="2" rx="1" transform="rotate(-90 0 32)" fill="#F8F8F8" fill-opacity="0.4"/>
    <rect y="42" width="2" height="2" rx="1" transform="rotate(-90 0 42)" fill="#F8F8F8" fill-opacity="0.4"/>
    <rect y="52" width="2" height="2" rx="1" transform="rotate(-90 0 52)" fill="#F8F8F8" fill-opacity="0.4"/>
    <rect x="130" y="2" width="2" height="2" rx="1" transform="rotate(-90 130 2)" fill="#F8F8F8" fill-opacity="0.4"/>
    <rect x="130" y="12" width="2" height="2" rx="1" transform="rotate(-90 130 12)" fill="#F8F8F8" fill-opacity="0.4"/>
    <rect x="130" y="22" width="2" height="2" rx="1" transform="rotate(-90 130 22)" fill="#F8F8F8" fill-opacity="0.4"/>
    <rect x="90" y="2" width="2" height="2" rx="1" transform="rotate(-90 90 2)" fill="#F8F8F8" fill-opacity="0.4"/>
    <rect x="90" y="12" width="2" height="2" rx="1" transform="rotate(-90 90 12)" fill="#F8F8F8" fill-opacity="0.4"/>
    <rect x="90" y="22" width="2" height="2" rx="1" transform="rotate(-90 90 22)" fill="#F8F8F8" fill-opacity="0.4"/>
    <rect x="140" y="2" width="2" height="2" rx="1" transform="rotate(-90 140 2)" fill="#F8F8F8" fill-opacity="0.4"/>
    <rect x="140" y="12" width="2" height="2" rx="1" transform="rotate(-90 140 12)" fill="#F8F8F8" fill-opacity="0.4"/>
    <rect x="140" y="22" width="2" height="2" rx="1" transform="rotate(-90 140 22)" fill="#F8F8F8" fill-opacity="0.4"/>
    <rect x="100" y="2" width="2" height="2" rx="1" transform="rotate(-90 100 2)" fill="#F8F8F8" fill-opacity="0.4"/>
    <rect x="100" y="12" width="2" height="2" rx="1" transform="rotate(-90 100 12)" fill="#F8F8F8" fill-opacity="0.4"/>
    <rect x="100" y="22" width="2" height="2" rx="1" transform="rotate(-90 100 22)" fill="#F8F8F8" fill-opacity="0.4"/>
    <rect x="150" y="2" width="2" height="2" rx="1" transform="rotate(-90 150 2)" fill="#F8F8F8" fill-opacity="0.4"/>
    <rect x="150" y="12" width="2" height="2" rx="1" transform="rotate(-90 150 12)" fill="#F8F8F8" fill-opacity="0.4"/>
    <rect x="150" y="22" width="2" height="2" rx="1" transform="rotate(-90 150 22)" fill="#F8F8F8" fill-opacity="0.4"/>
    <rect x="110" y="2" width="2" height="2" rx="1" transform="rotate(-90 110 2)" fill="#F8F8F8" fill-opacity="0.4"/>
    <rect x="110" y="12" width="2" height="2" rx="1" transform="rotate(-90 110 12)" fill="#F8F8F8" fill-opacity="0.4"/>
    <rect x="110" y="22" width="2" height="2" rx="1" transform="rotate(-90 110 22)" fill="#F8F8F8" fill-opacity="0.4"/>
    <rect x="120" y="2" width="2" height="2" rx="1" transform="rotate(-90 120 2)" fill="#F8F8F8" fill-opacity="0.4"/>
    <rect x="120" y="12" width="2" height="2" rx="1" transform="rotate(-90 120 12)" fill="#F8F8F8" fill-opacity="0.4"/>
    <rect x="120" y="22" width="2" height="2" rx="1" transform="rotate(-90 120 22)" fill="#F8F8F8" fill-opacity="0.4"/>
    <rect x="80" y="2" width="2" height="2" rx="1" transform="rotate(-90 80 2)" fill="#F8F8F8" fill-opacity="0.4"/>
    <rect x="80" y="12" width="2" height="2" rx="1" transform="rotate(-90 80 12)" fill="#F8F8F8" fill-opacity="0.4"/>
    <rect x="80" y="22" width="2" height="2" rx="1" transform="rotate(-90 80 22)" fill="#F8F8F8" fill-opacity="0.4"/>
    <rect x="130" y="32" width="2" height="2" rx="1" transform="rotate(-90 130 32)" fill="#F8F8F8" fill-opacity="0.4"/>
    <rect x="130" y="42" width="2" height="2" rx="1" transform="rotate(-90 130 42)" fill="#F8F8F8" fill-opacity="0.4"/>
    <rect x="130" y="52" width="2" height="2" rx="1" transform="rotate(-90 130 52)" fill="#F8F8F8" fill-opacity="0.4"/>
    <rect x="90" y="32" width="2" height="2" rx="1" transform="rotate(-90 90 32)" fill="#F8F8F8" fill-opacity="0.4"/>
    <rect x="90" y="42" width="2" height="2" rx="1" transform="rotate(-90 90 42)" fill="#F8F8F8" fill-opacity="0.4"/>
    <rect x="90" y="52" width="2" height="2" rx="1" transform="rotate(-90 90 52)" fill="#F8F8F8" fill-opacity="0.4"/>
    <rect x="140" y="32" width="2" height="2" rx="1" transform="rotate(-90 140 32)" fill="#F8F8F8" fill-opacity="0.4"/>
    <rect x="140" y="42" width="2" height="2" rx="1" transform="rotate(-90 140 42)" fill="#F8F8F8" fill-opacity="0.4"/>
    <rect x="140" y="52" width="2" height="2" rx="1" transform="rotate(-90 140 52)" fill="#F8F8F8" fill-opacity="0.4"/>
    <rect x="100" y="32" width="2" height="2" rx="1" transform="rotate(-90 100 32)" fill="#F8F8F8" fill-opacity="0.4"/>
    <rect x="100" y="42" width="2" height="2" rx="1" transform="rotate(-90 100 42)" fill="#F8F8F8" fill-opacity="0.4"/>
    <rect x="100" y="52" width="2" height="2" rx="1" transform="rotate(-90 100 52)" fill="#F8F8F8" fill-opacity="0.4"/>
    <rect x="150" y="32" width="2" height="2" rx="1" transform="rotate(-90 150 32)" fill="#F8F8F8" fill-opacity="0.4"/>
    <rect x="150" y="42" width="2" height="2" rx="1" transform="rotate(-90 150 42)" fill="#F8F8F8" fill-opacity="0.4"/>
    <rect x="150" y="52" width="2" height="2" rx="1" transform="rotate(-90 150 52)" fill="#F8F8F8" fill-opacity="0.4"/>
    <rect x="110" y="32" width="2" height="2" rx="1" transform="rotate(-90 110 32)" fill="#F8F8F8" fill-opacity="0.4"/>
    <rect x="110" y="42" width="2" height="2" rx="1" transform="rotate(-90 110 42)" fill="#F8F8F8" fill-opacity="0.4"/>
    <rect x="110" y="52" width="2" height="2" rx="1" transform="rotate(-90 110 52)" fill="#F8F8F8" fill-opacity="0.4"/>
    <rect x="120" y="32" width="2" height="2" rx="1" transform="rotate(-90 120 32)" fill="#F8F8F8" fill-opacity="0.4"/>
    <rect x="120" y="42" width="2" height="2" rx="1" transform="rotate(-90 120 42)" fill="#F8F8F8" fill-opacity="0.4"/>
    <rect x="120" y="52" width="2" height="2" rx="1" transform="rotate(-90 120 52)" fill="#F8F8F8" fill-opacity="0.4"/>
    <rect x="80" y="32" width="2" height="2" rx="1" transform="rotate(-90 80 32)" fill="#F8F8F8" fill-opacity="0.4"/>
    <rect x="80" y="42" width="2" height="2" rx="1" transform="rotate(-90 80 42)" fill="#F8F8F8" fill-opacity="0.4"/>
    <rect x="80" y="52" width="2" height="2" rx="1" transform="rotate(-90 80 52)" fill="#F8F8F8" fill-opacity="0.4"/>
    <rect x="210" y="2" width="2" height="2" rx="1" transform="rotate(-90 210 2)" fill="#F8F8F8" fill-opacity="0.4"/>
    <rect x="210" y="12" width="2" height="2" rx="1" transform="rotate(-90 210 12)" fill="#F8F8F8" fill-opacity="0.4"/>
    <rect x="210" y="22" width="2" height="2" rx="1" transform="rotate(-90 210 22)" fill="#F8F8F8" fill-opacity="0.4"/>
    <rect x="170" y="2" width="2" height="2" rx="1" transform="rotate(-90 170 2)" fill="#F8F8F8" fill-opacity="0.4"/>
    <rect x="170" y="12" width="2" height="2" rx="1" transform="rotate(-90 170 12)" fill="#F8F8F8" fill-opacity="0.4"/>
    <rect x="170" y="22" width="2" height="2" rx="1" transform="rotate(-90 170 22)" fill="#F8F8F8" fill-opacity="0.4"/>
    <rect x="220" y="2" width="2" height="2" rx="1" transform="rotate(-90 220 2)" fill="#F8F8F8" fill-opacity="0.4"/>
    <rect x="220" y="12" width="2" height="2" rx="1" transform="rotate(-90 220 12)" fill="#F8F8F8" fill-opacity="0.4"/>
    <rect x="220" y="22" width="2" height="2" rx="1" transform="rotate(-90 220 22)" fill="#F8F8F8" fill-opacity="0.4"/>
    <rect x="180" y="2" width="2" height="2" rx="1" transform="rotate(-90 180 2)" fill="#F8F8F8" fill-opacity="0.4"/>
    <rect x="180" y="12" width="2" height="2" rx="1" transform="rotate(-90 180 12)" fill="#F8F8F8" fill-opacity="0.4"/>
    <rect x="180" y="22" width="2" height="2" rx="1" transform="rotate(-90 180 22)" fill="#F8F8F8" fill-opacity="0.4"/>
    <rect x="230" y="2" width="2" height="2" rx="1" transform="rotate(-90 230 2)" fill="#F8F8F8" fill-opacity="0.4"/>
    <rect x="230" y="12" width="2" height="2" rx="1" transform="rotate(-90 230 12)" fill="#F8F8F8" fill-opacity="0.4"/>
    <rect x="230" y="22" width="2" height="2" rx="1" transform="rotate(-90 230 22)" fill="#F8F8F8" fill-opacity="0.4"/>
    <rect x="190" y="2" width="2" height="2" rx="1" transform="rotate(-90 190 2)" fill="#F8F8F8" fill-opacity="0.4"/>
    <rect x="190" y="12" width="2" height="2" rx="1" transform="rotate(-90 190 12)" fill="#F8F8F8" fill-opacity="0.4"/>
    <rect x="190" y="22" width="2" height="2" rx="1" transform="rotate(-90 190 22)" fill="#F8F8F8" fill-opacity="0.4"/>
    <rect x="200" y="2" width="2" height="2" rx="1" transform="rotate(-90 200 2)" fill="#F8F8F8" fill-opacity="0.4"/>
    <rect x="200" y="12" width="2" height="2" rx="1" transform="rotate(-90 200 12)" fill="#F8F8F8" fill-opacity="0.4"/>
    <rect x="200" y="22" width="2" height="2" rx="1" transform="rotate(-90 200 22)" fill="#F8F8F8" fill-opacity="0.4"/>
    <rect x="160" y="2" width="2" height="2" rx="1" transform="rotate(-90 160 2)" fill="#F8F8F8" fill-opacity="0.4"/>
    <rect x="160" y="12" width="2" height="2" rx="1" transform="rotate(-90 160 12)" fill="#F8F8F8" fill-opacity="0.4"/>
    <rect x="160" y="22" width="2" height="2" rx="1" transform="rotate(-90 160 22)" fill="#F8F8F8" fill-opacity="0.4"/>
    <rect x="210" y="32" width="2" height="2" rx="1" transform="rotate(-90 210 32)" fill="#F8F8F8" fill-opacity="0.4"/>
    <rect x="210" y="42" width="2" height="2" rx="1" transform="rotate(-90 210 42)" fill="#F8F8F8" fill-opacity="0.4"/>
    <rect x="210" y="52" width="2" height="2" rx="1" transform="rotate(-90 210 52)" fill="#F8F8F8" fill-opacity="0.4"/>
    <rect x="170" y="32" width="2" height="2" rx="1" transform="rotate(-90 170 32)" fill="#F8F8F8" fill-opacity="0.4"/>
    <rect x="170" y="42" width="2" height="2" rx="1" transform="rotate(-90 170 42)" fill="#F8F8F8" fill-opacity="0.4"/>
    <rect x="170" y="52" width="2" height="2" rx="1" transform="rotate(-90 170 52)" fill="#F8F8F8" fill-opacity="0.4"/>
    <rect x="220" y="32" width="2" height="2" rx="1" transform="rotate(-90 220 32)" fill="#F8F8F8" fill-opacity="0.4"/>
    <rect x="220" y="42" width="2" height="2" rx="1" transform="rotate(-90 220 42)" fill="#F8F8F8" fill-opacity="0.4"/>
    <rect x="220" y="52" width="2" height="2" rx="1" transform="rotate(-90 220 52)" fill="#F8F8F8" fill-opacity="0.4"/>
    <rect x="180" y="32" width="2" height="2" rx="1" transform="rotate(-90 180 32)" fill="#F8F8F8" fill-opacity="0.4"/>
    <rect x="180" y="42" width="2" height="2" rx="1" transform="rotate(-90 180 42)" fill="#F8F8F8" fill-opacity="0.4"/>
    <rect x="180" y="52" width="2" height="2" rx="1" transform="rotate(-90 180 52)" fill="#F8F8F8" fill-opacity="0.4"/>
    <rect x="230" y="32" width="2" height="2" rx="1" transform="rotate(-90 230 32)" fill="#F8F8F8" fill-opacity="0.4"/>
    <rect x="230" y="42" width="2" height="2" rx="1" transform="rotate(-90 230 42)" fill="#F8F8F8" fill-opacity="0.4"/>
    <rect x="230" y="52" width="2" height="2" rx="1" transform="rotate(-90 230 52)" fill="#F8F8F8" fill-opacity="0.4"/>
    <rect x="190" y="32" width="2" height="2" rx="1" transform="rotate(-90 190 32)" fill="#F8F8F8" fill-opacity="0.4"/>
    <rect x="190" y="42" width="2" height="2" rx="1" transform="rotate(-90 190 42)" fill="#F8F8F8" fill-opacity="0.4"/>
    <rect x="190" y="52" width="2" height="2" rx="1" transform="rotate(-90 190 52)" fill="#F8F8F8" fill-opacity="0.4"/>
    <rect x="200" y="32" width="2" height="2" rx="1" transform="rotate(-90 200 32)" fill="#F8F8F8" fill-opacity="0.4"/>
    <rect x="200" y="42" width="2" height="2" rx="1" transform="rotate(-90 200 42)" fill="#F8F8F8" fill-opacity="0.4"/>
    <rect x="200" y="52" width="2" height="2" rx="1" transform="rotate(-90 200 52)" fill="#F8F8F8" fill-opacity="0.4"/>
    <rect x="160" y="32" width="2" height="2" rx="1" transform="rotate(-90 160 32)" fill="#F8F8F8" fill-opacity="0.4"/>
    <rect x="160" y="42" width="2" height="2" rx="1" transform="rotate(-90 160 42)" fill="#F8F8F8" fill-opacity="0.4"/>
    <rect x="160" y="52" width="2" height="2" rx="1" transform="rotate(-90 160 52)" fill="#F8F8F8" fill-opacity="0.4"/>
    <rect x="290" y="2" width="2" height="2" rx="1" transform="rotate(-90 290 2)" fill="#F8F8F8" fill-opacity="0.4"/>
    <rect x="290" y="12" width="2" height="2" rx="1" transform="rotate(-90 290 12)" fill="#F8F8F8" fill-opacity="0.4"/>
    <rect x="290" y="22" width="2" height="2" rx="1" transform="rotate(-90 290 22)" fill="#F8F8F8" fill-opacity="0.4"/>
    <rect x="250" y="2" width="2" height="2" rx="1" transform="rotate(-90 250 2)" fill="#F8F8F8" fill-opacity="0.4"/>
    <rect x="250" y="12" width="2" height="2" rx="1" transform="rotate(-90 250 12)" fill="#F8F8F8" fill-opacity="0.4"/>
    <rect x="250" y="22" width="2" height="2" rx="1" transform="rotate(-90 250 22)" fill="#F8F8F8" fill-opacity="0.4"/>
    <rect x="300" y="2" width="2" height="2" rx="1" transform="rotate(-90 300 2)" fill="#F8F8F8" fill-opacity="0.4"/>
    <rect x="300" y="12" width="2" height="2" rx="1" transform="rotate(-90 300 12)" fill="#F8F8F8" fill-opacity="0.4"/>
    <rect x="300" y="22" width="2" height="2" rx="1" transform="rotate(-90 300 22)" fill="#F8F8F8" fill-opacity="0.4"/>
    <rect x="260" y="2" width="2" height="2" rx="1" transform="rotate(-90 260 2)" fill="#F8F8F8" fill-opacity="0.4"/>
    <rect x="260" y="12" width="2" height="2" rx="1" transform="rotate(-90 260 12)" fill="#F8F8F8" fill-opacity="0.4"/>
    <rect x="260" y="22" width="2" height="2" rx="1" transform="rotate(-90 260 22)" fill="#F8F8F8" fill-opacity="0.4"/>
    <rect x="310" y="2" width="2" height="2" rx="1" transform="rotate(-90 310 2)" fill="#F8F8F8" fill-opacity="0.4"/>
    <rect x="310" y="12" width="2" height="2" rx="1" transform="rotate(-90 310 12)" fill="#F8F8F8" fill-opacity="0.4"/>
    <rect x="310" y="22" width="2" height="2" rx="1" transform="rotate(-90 310 22)" fill="#F8F8F8" fill-opacity="0.4"/>
    <rect x="270" y="2" width="2" height="2" rx="1" transform="rotate(-90 270 2)" fill="#F8F8F8" fill-opacity="0.4"/>
    <rect x="270" y="12" width="2" height="2" rx="1" transform="rotate(-90 270 12)" fill="#F8F8F8" fill-opacity="0.4"/>
    <rect x="270" y="22" width="2" height="2" rx="1" transform="rotate(-90 270 22)" fill="#F8F8F8" fill-opacity="0.4"/>
    <rect x="280" y="2" width="2" height="2" rx="1" transform="rotate(-90 280 2)" fill="#F8F8F8" fill-opacity="0.4"/>
    <rect x="280" y="12" width="2" height="2" rx="1" transform="rotate(-90 280 12)" fill="#F8F8F8" fill-opacity="0.4"/>
    <rect x="280" y="22" width="2" height="2" rx="1" transform="rotate(-90 280 22)" fill="#F8F8F8" fill-opacity="0.4"/>
    <rect x="240" y="2" width="2" height="2" rx="1" transform="rotate(-90 240 2)" fill="#F8F8F8" fill-opacity="0.4"/>
    <rect x="240" y="12" width="2" height="2" rx="1" transform="rotate(-90 240 12)" fill="#F8F8F8" fill-opacity="0.4"/>
    <rect x="240" y="22" width="2" height="2" rx="1" transform="rotate(-90 240 22)" fill="#F8F8F8" fill-opacity="0.4"/>
    <rect x="290" y="32" width="2" height="2" rx="1" transform="rotate(-90 290 32)" fill="#F8F8F8" fill-opacity="0.4"/>
    <rect x="290" y="42" width="2" height="2" rx="1" transform="rotate(-90 290 42)" fill="#F8F8F8" fill-opacity="0.4"/>
    <rect x="290" y="52" width="2" height="2" rx="1" transform="rotate(-90 290 52)" fill="#F8F8F8" fill-opacity="0.4"/>
    <rect x="250" y="32" width="2" height="2" rx="1" transform="rotate(-90 250 32)" fill="#F8F8F8" fill-opacity="0.4"/>
    <rect x="250" y="42" width="2" height="2" rx="1" transform="rotate(-90 250 42)" fill="#F8F8F8" fill-opacity="0.4"/>
    <rect x="250" y="52" width="2" height="2" rx="1" transform="rotate(-90 250 52)" fill="#F8F8F8" fill-opacity="0.4"/>
    <rect x="300" y="32" width="2" height="2" rx="1" transform="rotate(-90 300 32)" fill="#F8F8F8" fill-opacity="0.4"/>
    <rect x="300" y="42" width="2" height="2" rx="1" transform="rotate(-90 300 42)" fill="#F8F8F8" fill-opacity="0.4"/>
    <rect x="300" y="52" width="2" height="2" rx="1" transform="rotate(-90 300 52)" fill="#F8F8F8" fill-opacity="0.4"/>
    <rect x="260" y="32" width="2" height="2" rx="1" transform="rotate(-90 260 32)" fill="#F8F8F8" fill-opacity="0.4"/>
    <rect x="260" y="42" width="2" height="2" rx="1" transform="rotate(-90 260 42)" fill="#F8F8F8" fill-opacity="0.4"/>
    <rect x="260" y="52" width="2" height="2" rx="1" transform="rotate(-90 260 52)" fill="#F8F8F8" fill-opacity="0.4"/>
    <rect x="310" y="32" width="2" height="2" rx="1" transform="rotate(-90 310 32)" fill="#F8F8F8" fill-opacity="0.4"/>
    <rect x="310" y="42" width="2" height="2" rx="1" transform="rotate(-90 310 42)" fill="#F8F8F8" fill-opacity="0.4"/>
    <rect x="310" y="52" width="2" height="2" rx="1" transform="rotate(-90 310 52)" fill="#F8F8F8" fill-opacity="0.4"/>
    <rect x="270" y="32" width="2" height="2" rx="1" transform="rotate(-90 270 32)" fill="#F8F8F8" fill-opacity="0.4"/>
    <rect x="270" y="42" width="2" height="2" rx="1" transform="rotate(-90 270 42)" fill="#F8F8F8" fill-opacity="0.4"/>
    <rect x="270" y="52" width="2" height="2" rx="1" transform="rotate(-90 270 52)" fill="#F8F8F8" fill-opacity="0.4"/>
    <rect x="280" y="32" width="2" height="2" rx="1" transform="rotate(-90 280 32)" fill="#F8F8F8" fill-opacity="0.4"/>
    <rect x="280" y="42" width="2" height="2" rx="1" transform="rotate(-90 280 42)" fill="#F8F8F8" fill-opacity="0.4"/>
    <rect x="280" y="52" width="2" height="2" rx="1" transform="rotate(-90 280 52)" fill="#F8F8F8" fill-opacity="0.4"/>
    <rect x="240" y="32" width="2" height="2" rx="1" transform="rotate(-90 240 32)" fill="#F8F8F8" fill-opacity="0.4"/>
    <rect x="240" y="42" width="2" height="2" rx="1" transform="rotate(-90 240 42)" fill="#F8F8F8" fill-opacity="0.4"/>
    <rect x="240" y="52" width="2" height="2" rx="1" transform="rotate(-90 240 52)" fill="#F8F8F8" fill-opacity="0.4"/>
</svg>
