<svg width="22" height="32" viewBox="0 0 22 32" fill="none" xmlns="http://www.w3.org/2000/svg">
    <path d="M15.4921 24.2458V9.79629C15.4921 9.23204 16.0366 8.95282 16.5151 9.16224L19.6557 10.9248C19.8592 11.0644 19.9967 11.2796 19.9967 11.5589V24.2458C19.9967 24.6704 19.7217 24.9496 19.3147 24.9496H16.1741C15.8331 24.9496 15.4921 24.5948 15.4921 24.2458Z" fill="#FDFDFD"/>
    <path d="M6.48701 24.2446V16.2113C6.48701 15.6471 5.94249 15.3679 5.46398 15.5773L2.32337 17.3398C2.11987 17.4794 1.98236 17.6947 1.98236 17.9739V24.2446C1.98236 24.6693 2.25737 24.9485 2.66438 24.9485H5.80499C6.146 24.9485 6.48701 24.5937 6.48701 24.2446Z" fill="#FDFDFD"/>
    <path d="M8.73819 24.245V0.703518C8.73819 0.139267 9.28271 -0.139951 9.76122 0.0694622L12.9018 1.83202C13.1053 1.97163 13.2428 2.18686 13.2428 2.46608V24.245C13.2428 24.6697 12.9678 24.9489 12.5608 24.9489H9.42021C9.0132 24.9489 8.73819 24.594 8.73819 24.245Z" fill="#FDFDFD"/>
    <path d="M20.1978 31.6453L21.9028 28.4052C22.1778 27.9107 21.8368 27.3465 21.2868 27.3465H0.683096C0.138578 27.3465 -0.136431 27.9107 0.0670759 28.4052L1.77213 31.6453C1.90964 31.8547 2.11314 32.0001 2.38815 32.0001H19.6532C19.8567 32.0001 20.1317 31.8605 20.1978 31.6453Z" fill="#FDFDFD"/>
</svg>
